<svg width="142" height="33" fill="none" xmlns="http://www.w3.org/2000/svg"><path d="M0 6.7v26h3.8V13.8H4l7.7 18.7h3.1l7.8-18.7h.2v18.7h3.8V6.7h-4.8l-8.4 20.1h-.3l-8.3-20H0ZM41.1 33c4.3 0 7.3-2 8.2-5.2l-3.6-.7C45 29 43.3 30 41.2 30c-3.3 0-5.5-2.1-5.6-5.9h14v-1.3c0-7-4.3-9.7-8.7-9.7-5.5 0-9.1 4-9.1 10s3.5 10 9.3 10Zm-5.5-11.8c.2-2.7 2.2-5.1 5.3-5.1 3 0 4.9 2.1 5 5.1H35.5ZM68.5 18c-.8-3-3.2-5-7.4-5-4.5 0-7.6 2.3-7.6 5.7 0 2.8 1.7 4.6 5.4 5.4l3.3.7c1.9.4 2.8 1.3 2.8 2.5 0 1.5-1.7 2.7-4.2 2.7-2.2 0-3.7-1-4.2-3l-3.7.6c.7 3.5 3.6 5.4 8 5.4 4.7 0 8-2.5 8-6 0-2.7-1.8-4.4-5.4-5.3l-3-.7c-2.3-.5-3.2-1.2-3.2-2.5 0-1.5 1.6-2.6 3.8-2.6 2.4 0 3.5 1.3 4 2.6l3.4-.6ZM82.3 13.2h-4V8.6h-3.9v4.6h-2.9v3h3v11.5c-.1 3.5 2.6 5.2 5.6 5.2 1.3 0 2-.3 2.5-.4l-.7-3.2-1.3.2c-1.3 0-2.4-.4-2.4-2.6V16.2h4v-3ZM94.6 33c5.5 0 9.1-4 9.1-10s-3.6-10-9.1-10c-5.6 0-9.2 4-9.2 10s3.6 10 9.2 10Zm0-3.2c-3.7 0-5.3-3-5.3-6.8 0-3.7 1.6-6.9 5.3-6.9 3.6 0 5.2 3.2 5.2 6.9s-1.6 6.8-5.2 6.8ZM107.2 8.9h1V5.5h2.2l1.8 3.4h1.2l-2-3.6c1.2-.3 1.7-1.2 1.7-2.4 0-1.5-1-2.6-3-2.6h-3v8.6Zm1-4.3V1.2h1.9c1.4 0 2 .7 2 1.7s-.6 1.7-2 1.7h-1.9ZM118.8 6.2c0 1.3-.9 1.8-1.6 1.8-.9 0-1.5-.6-1.5-1.5v-4h-1v4c0 1.7.9 2.5 2.1 2.5a2 2 0 0 0 2-1.2v1h1V2.5h-1v3.8ZM126.3 3.9c-.3-1-1-1.6-2.3-1.6-1.4 0-2.4.8-2.4 2 0 .8.5 1.4 1.7 1.7l1.1.2c.7.2 1 .5 1 1s-.6 1-1.5 1-1.4-.4-1.5-1l-1 .1c.2 1.1 1.1 1.7 2.5 1.7 1.5 0 2.5-.8 2.5-2 0-.8-.5-1.4-1.7-1.7l-1-.2c-.7-.2-1-.4-1-1 0-.5.5-.9 1.3-.9.9 0 1.2.5 1.4 1l1-.3ZM132.6 3.9c-.3-1-1-1.6-2.3-1.6-1.4 0-2.4.8-2.4 2 0 .8.5 1.4 1.7 1.7l1.1.2c.7.2 1 .5 1 1s-.6 1-1.6 1c-.8 0-1.3-.4-1.5-1l-1 .1c.3 1.1 1.2 1.7 2.6 1.7 1.5 0 2.5-.8 2.5-2 0-.8-.6-1.4-1.7-1.7l-1-.2c-.8-.2-1.1-.4-1.1-1 0-.5.6-.9 1.4-.9.9 0 1.2.5 1.4 1l.9-.3ZM134.2 8.9h1V2.4h-1V9Zm.5-7.6c.4 0 .8-.3.8-.6 0-.4-.4-.7-.8-.7s-.7.3-.7.7c0 .3.3.6.7.6ZM139 9c1.1 0 1.7-.6 2-1V9h1V4.6c0-2-1.6-2.3-2.4-2.3-1 0-2.1.4-2.6 1.6l1 .3c.1-.5.7-1 1.6-1 1 0 1.4.5 1.4 1.3 0 .5-.5.5-1.7.7-1.2.1-2.5.4-2.5 1.9 0 1.2 1 2 2.2 2Zm.2-.8c-.8 0-1.4-.4-1.4-1 0-.9.7-1 1.5-1.2.4 0 1.5-.2 1.7-.4v1c0 .8-.7 1.6-1.8 1.6Z" fill="#fff"/></svg>